HIERARCHY
ROOT Hips
{
 OFFSET 0.000000 0.000000 0.000000
 CHANNELS 6 Xposition Yposition Zposition Yrotation Xrotation Zrotation
 JOINT Chest
 {
  OFFSET 0.000000 9.585900 0.002600
  CHANNELS 3 Yrotation Xrotation Zrotation
  JOINT Chest2
  {
   OFFSET 0.000000 9.601200 -0.005300
   CHANNELS 3 Yrotation Xrotation Zrotation
   JOINT Chest3
   {
    OFFSET 0.000000 9.561800 0.000000
    CHANNELS 3 Yrotation Xrotation Zrotation
    JOINT Chest4
    {
     OFFSET 0.000000 9.552100 0.000000
     CHANNELS 3 Yrotation Xrotation Zrotation
     JOINT Neck
     {
      OFFSET 0.000000 14.453000 0.000000
      CHANNELS 3 Yrotation Xrotation Zrotation
      JOINT Head
      {
       OFFSET 0.000000 8.936500 -0.011300
       CHANNELS 3 Yrotation Xrotation Zrotation
       End Site
       {
        OFFSET 0.000000 17.073600 -0.006000
       }
      }
     }
     JOINT RightCollar
     {
      OFFSET -2.921100 9.558500 0.000000
      CHANNELS 3 Yrotation Xrotation Zrotation
      JOINT RightShoulder
      {
       OFFSET -13.519700 0.000000 0.000000
       CHANNELS 3 Yrotation Xrotation Zrotation
       JOINT RightElbow
       {
        OFFSET 0.000000 -29.696600 0.000000
        CHANNELS 3 Yrotation Xrotation Zrotation
        JOINT RightWrist
        {
         OFFSET 0.000000 -24.004700 0.000000
         CHANNELS 3 Yrotation Xrotation Zrotation
         End Site
         {
          OFFSET 0.000000 -17.728500 0.000000
         }
        }
       }
      }
     }
     JOINT LeftCollar
     {
      OFFSET 2.921100 9.558500 0.000000
      CHANNELS 3 Yrotation Xrotation Zrotation
      JOINT LeftShoulder
      {
       OFFSET 13.519700 0.000000 0.000000
       CHANNELS 3 Yrotation Xrotation Zrotation
       JOINT LeftElbow
       {
        OFFSET 0.000000 -29.696600 0.000000
        CHANNELS 3 Yrotation Xrotation Zrotation
        JOINT LeftWrist
        {
         OFFSET 0.000000 -24.004700 0.000000
         CHANNELS 3 Yrotation Xrotation Zrotation
         End Site
         {
          OFFSET 0.000000 -17.728500 0.000000
         }
        }
       }
      }
     }
    }
   }
  }
 }
 JOINT RightHip
 {
  OFFSET -7.771700 -0.012900 -0.001300
  CHANNELS 3 Yrotation Xrotation Zrotation
  JOINT RightKnee
  {
   OFFSET 0.000000 -40.869800 0.001200
   CHANNELS 3 Yrotation Xrotation Zrotation
   JOINT RightAnkle
   {
    OFFSET 0.000000 -39.717900 0.002100
    CHANNELS 3 Yrotation Xrotation Zrotation
    JOINT RightToe
    {
     OFFSET 0.000000 -4.965400 11.033500
     CHANNELS 3 Yrotation Xrotation Zrotation
     End Site
     {
      OFFSET 0.000000 -1.423100 5.872300
     }
    }
   }
  }
 }
 JOINT LeftHip
 {
  OFFSET 7.771700 -0.012900 -0.001300
  CHANNELS 3 Yrotation Xrotation Zrotation
  JOINT LeftKnee
  {
   OFFSET 0.000000 -40.869800 0.001200
   CHANNELS 3 Yrotation Xrotation Zrotation
   JOINT LeftAnkle
   {
    OFFSET 0.000000 -39.717900 0.002100
    CHANNELS 3 Yrotation Xrotation Zrotation
    JOINT LeftToe
    {
     OFFSET 0.000000 -4.965400 11.033500
     CHANNELS 3 Yrotation Xrotation Zrotation
     End Site
     {
      OFFSET 0.000000 -1.423100 5.872300
     }
    }
   }
  }
 }
}
MOTION
Frames: 5
Frame Time: 0.008333
-67.055430 63.215103 12.179209 164.261767 -52.902778 -2.116959 6.623144 26.648157 4.929545 1.033896 4.689278 0.458175 1.655439 7.408364 0.765093 5.337479 21.672249 2.976324 1.626640 14.157361 -1.446709 3.597195 -9.448172 -3.347693 6.983114 5.697808 4.929870 -0.759593 -14.296036 -14.520995 -153.262102 -67.424359 178.614098 27.830626 3.946325 4.972291 -10.672577 3.147158 -1.015984 8.605749 -18.831354 14.647680 126.230644 -54.652154 -152.267373 13.097087 -13.332260 -4.177121 -4.545387 -7.637814 9.621870 -27.854518 74.085818 -25.896130 0.964394 -13.175241 -2.179736 -0.448416 0.780694 -0.190998 -1.971625 -13.882489 0.479556 12.974726 62.324238 6.269997 -3.762565 -6.420847 1.008151 -0.220262 -0.649935 -0.103370
-67.060601 63.217323 12.181514 164.277885 -52.916874 -2.127096 6.620523 26.638847 4.925737 1.033320 4.687436 0.457894 1.654614 7.405544 0.764696 5.335828 21.669145 2.975411 1.619836 14.187447 -1.431046 3.568450 -9.388374 -3.317380 6.982515 5.720171 4.940816 -0.757511 -14.309572 -14.506792 -153.261886 -67.439232 178.614467 27.820954 3.926644 4.943769 -10.685886 3.144417 -1.015598 8.645288 -18.946890 14.630482 125.868980 -54.353757 -152.227816 13.126574 -13.221472 -4.701893 -4.549278 -7.621850 9.617559 -27.849097 74.080065 -25.892324 0.958976 -13.170555 -2.179055 -0.443400 0.776776 -0.190352 -1.977231 -13.866593 0.472667 12.967910 62.315083 6.264238 -3.749862 -6.414171 1.011068 -0.239193 -0.649338 -0.104765
-67.065371 63.222198 12.181788 164.311592 -52.950967 -2.149111 6.609047 26.649299 4.923145 1.032607 4.685342 0.457264 1.653585 7.402421 0.763668 5.333561 21.681328 2.980910 1.608303 14.205356 -1.423204 3.532162 -9.304407 -3.278587 6.979609 5.724545 4.937266 -0.756437 -14.318716 -14.487461 -153.246369 -67.431125 178.596173 27.786035 3.899489 4.911804 -10.701140 3.132883 -1.021757 8.668850 -19.056172 14.621136 125.518100 -54.070504 -152.196511 13.142526 -13.090807 -5.250230 -4.553290 -7.583237 9.607472 -27.848445 74.072815 -25.881898 0.947683 -13.161399 -2.181505 -0.433101 0.767144 -0.185749 -1.992227 -13.828990 0.461902 12.971478 62.305781 6.269063 -3.742572 -6.407326 1.013455 -0.237766 -0.653613 -0.104509
-67.070035 63.225660 12.183061 164.331580 -52.975592 -2.161319 6.604014 26.655904 4.922191 1.033659 4.677040 0.454954 1.652249 7.399760 0.762268 5.331555 21.693038 2.984862 1.581200 14.236051 -1.421359 3.539422 -9.281859 -3.262508 6.965472 5.724445 4.919854 -0.750799 -14.321501 -14.454003 -153.217720 -67.407493 178.569205 27.779766 3.910639 4.911408 -10.711106 3.123649 -1.030327 8.672520 -19.126238 14.624170 125.200552 -53.782332 -152.206853 13.141723 -12.945357 -5.813704 -4.554690 -7.553130 9.599970 -27.839980 74.065119 -25.867154 0.935091 -13.164767 -2.188347 -0.421622 0.771127 -0.176574 -1.996607 -13.802045 0.456494 12.964363 62.298960 6.268070 -3.757826 -6.401564 1.010454 -0.232788 -0.654780 -0.102145
-67.074413 63.228109 12.185005 164.350624 -52.993587 -2.174390 6.595554 26.668125 4.922622 1.036621 4.662931 0.451305 1.650068 7.405386 0.763564 5.331376 21.677020 2.975661 1.575241 14.270933 -1.406739 3.526472 -9.246332 -3.247154 6.961574 5.749507 4.932122 -0.749584 -14.327434 -14.444086 -153.218873 -67.397938 178.571907 27.764330 3.897687 4.898515 -10.731081 3.097181 -1.061313 8.673539 -19.104550 14.670307 124.925962 -53.470497 -152.275516 13.122484 -12.789382 -6.384847 -4.559440 -7.531263 9.597246 -27.818029 74.056133 -25.853797 0.937675 -13.158257 -2.174985 -0.431397 0.771090 -0.179916 -1.999312 -13.782737 0.452245 12.978310 62.290920 6.285742 -3.774321 -6.394751 1.009907 -0.236786 -0.655896 -0.101692
